<svg xmlns="http://www.w3.org/2000/svg" width="77" height="77" viewBox="0 0 77 77" fill="none">
    <g clip-path="url(#clip0_1_643)">
        <path
            d="M38.714 0C30.176 0 23.2551 6.92098 23.2551 15.459V21.5764C24.2882 20.6187 25.758 20.0982 27.1929 20.2898V19.5195C27.1929 18.9071 27.7158 18.4235 28.322 18.4693C34.2989 18.8987 40.3815 16.9994 44.9806 13.9951C45.41 13.7144 45.9785 13.7842 46.3274 14.1593C50.2594 18.3857 50.2356 18.2222 50.2356 18.7739V20.2865C51.8084 20.0508 53.2034 20.5367 54.1727 21.4379V15.4588C54.1728 6.92113 47.252 0 38.714 0Z"
            fill="#576574" />
        <path
            d="M26.3539 15.459C26.3539 7.44404 32.453 0.854219 40.2633 0.077C39.7537 0.0263184 39.2369 0 38.714 0C30.176 0 23.2551 6.92098 23.2551 15.459V21.5764C24.087 20.8053 25.202 20.3184 26.3539 20.2578V15.459Z"
            fill="#3E4B5A" />
        <path
            d="M50.0309 19.6722V28.1406C50.0309 28.2323 50.0261 28.323 50.0238 28.4145C53.0206 28.8682 55.3676 26.7029 55.3676 24.0436C55.3678 21.3792 53.0187 19.2244 50.0309 19.6722Z"
            fill="#F2BB88" />
        <path
            d="M27.3977 28.1406V19.6755C24.7887 19.3271 22.0608 21.3294 22.0608 24.0438C22.0608 26.6995 24.4027 28.8688 27.4045 28.4144C27.4022 28.323 27.3977 28.232 27.3977 28.1406Z"
            fill="#F2BB88" />
        <path
            d="M53.1297 20.2113C52.2607 19.7197 51.1947 19.4979 50.0309 19.6723V28.1407C50.0309 28.2324 50.0261 28.3231 50.0238 28.4145C51.1914 28.5914 52.2597 28.3692 53.1295 27.8764V20.2113H53.1297Z"
            fill="#E3A76F" />
        <path
            d="M27.3977 27.877C26.034 27.1047 25.1596 25.6656 25.1596 24.0437C25.1596 22.453 26.097 21.1077 27.3977 20.3359V19.6754C24.7887 19.327 22.0608 21.3293 22.0608 24.0437C22.0608 26.6994 24.4027 28.8686 27.4045 28.4143C27.4022 28.323 27.3979 28.2319 27.3979 28.1405L27.3977 27.877Z"
            fill="#E3A76F" />
        <path
            d="M38.8787 39.2927C36.3812 39.2927 34.1864 38.6071 32.3913 37.4601V43.5271L38.8509 51.5005L45.3105 43.5271V37.2891C43.4805 38.5513 41.2649 39.2927 38.8787 39.2927Z"
            fill="#F2BB88" />
        <path
            d="M35.4901 38.8384C34.3592 38.5231 33.3212 38.0542 32.3913 37.46V43.527L35.4901 47.3519V38.8384Z"
            fill="#E3A76F" />
        <path
            d="M62.3991 49.7356L45.3105 43.1177L38.851 51.0911L32.3913 43.1177L15.3206 49.7356C15.3206 49.7356 9.00031 52.3341 9.00031 59.5391V75.5299C9.00031 76.3418 9.65856 77.0001 10.4705 77.0001H67.2619C68.0668 77.0001 68.7194 76.3475 68.7194 75.5426V59.5391C68.7195 52.3339 62.3991 49.7356 62.3991 49.7356Z"
            fill="#E4EAF8" />
        <path
            d="M12.0989 75.5298V57.9897C12.0989 53.2987 14.7777 50.561 16.6474 49.2212L15.3205 49.7355C15.3205 49.7355 9 52.3338 9 59.539V75.5298C9 76.3417 9.65826 77 10.4702 77H13.569C12.7572 77 12.0989 76.3417 12.0989 75.5298Z"
            fill="#D8DCE5" />
        <path
            d="M46.3275 13.7498C45.9786 13.3747 45.41 13.3051 44.9806 13.5856C40.3815 16.5899 34.2988 18.4892 28.322 18.0598C27.7158 18.014 27.1929 18.4976 27.1929 19.11V28.3454C27.1929 34.281 31.8437 39.7023 38.8787 39.7023C45.1409 39.7023 50.2357 34.6075 50.2357 28.3454V18.3644C50.2357 17.8128 50.2595 17.9762 46.3275 13.7498Z"
            fill="#F2D1A5" />
        <path
            d="M30.2917 28.3454V18.1172C29.6352 18.1246 28.978 18.1071 28.322 18.0599C27.7158 18.0139 27.1929 18.4977 27.1929 19.1101V28.3454C27.1929 34.281 31.8437 39.7023 38.8787 39.7023C39.3477 39.7023 39.8093 39.6703 40.2638 39.6148C34.6527 38.929 30.2917 34.1383 30.2917 28.3454Z"
            fill="#F2BB88" />
        <path
            d="M46.6504 55.1879L51.4808 45.5071L45.3106 43.1174L38.851 51.0908L45.1489 55.5636C45.6584 55.9258 46.3711 55.7474 46.6504 55.1879Z"
            fill="#D8DCE5" />
        <path
            d="M31.0603 55.1879L26.2299 45.5071L32.4001 43.1174L38.8597 51.0908L32.5618 55.5636C32.0521 55.9258 31.3396 55.7474 31.0603 55.1879Z"
            fill="#D8DCE5" />
        <path
            d="M38.8593 51.0964V51.0908L38.8554 51.0935L38.8515 51.0908V51.0964L34.2709 54.3496L36.436 57.6083C38.1828 57.6083 39.5281 57.6083 41.2747 57.6083L43.4399 54.3496L38.8593 51.0964Z"
            fill="#04BACD" />
        <path
            d="M33.1539 77.0001H44.5568L41.2747 57.6084C39.5279 57.6084 38.1827 57.6084 36.4361 57.6084L33.1539 77.0001Z"
            fill="#0CBCCE" />
        <path
            d="M40.4047 52.1939L38.8592 51.0964V51.0908L38.8553 51.0935L38.8514 51.0908V51.0964L34.2708 54.3496L36.4359 57.6083C37.2524 57.6083 37.7612 57.6083 39.5347 57.6083L37.849 55.0712C37.5818 54.6691 37.6822 54.1275 38.0759 53.8479L40.4047 52.1939Z"
            fill="#03CDE2" />
        <path
            d="M36.4361 57.6084L33.1539 77.0001H36.2527L39.5349 57.6084C37.7608 57.6084 37.2542 57.6084 36.4361 57.6084Z"
            fill="#03CDE2" />
        <path
            d="M20.9284 77.0001V62.0156C20.9284 61.3739 20.4082 60.8535 19.7663 60.8535C19.1244 60.8535 18.6042 61.3737 18.6042 62.0156V77.0001H20.9284Z"
            fill="#D8DCE5" />
        <path
            d="M59.1336 77V66.6629C59.1336 66.0212 58.6134 65.5009 57.9716 65.5009C57.3299 65.5009 56.8095 66.0211 56.8095 66.6629V77H59.1336Z"
            fill="#D8DCE5" />
    </g>
    <defs>
        <clipPath id="clip0_1_643">
            <rect width="77" height="77" fill="white" />
        </clipPath>
    </defs>
</svg>