<svg xmlns="http://www.w3.org/2000/svg" width="77" height="77" viewBox="0 0 77 77" fill="none">
    <path
        d="M43.6334 1.62983C44.0055 1.41166 44.4547 1.28333 44.9167 1.28333H73.15C74.5617 1.28333 75.7167 2.43833 75.7167 3.84999V26.95C75.7167 28.3617 74.5617 29.5167 73.15 29.5167H62.2674L53.9899 36.7547C52.8734 37.73 51.128 37.0755 50.9227 35.6125L50.05 29.5167H43.6334V1.62983Z"
        fill="#2473FE" />
    <path
        d="M8.61116 63.371H8.59833C4.32483 61.677 1.28333 57.5061 1.28333 52.6166V48.7666C1.28333 45.2246 4.15799 42.35 7.69999 42.35H8.39299L8.61116 63.371Z"
        fill="#BCC7CE" />
    <path
        d="M42.9403 42.35H43.6333C47.1753 42.35 50.05 45.2246 50.05 48.7666V52.6166C50.05 57.5061 47.0085 61.677 42.735 63.371H42.7222L42.9403 42.35Z"
        fill="#BCC7CE" />
    <path
        d="M43.6333 52.6167V57.75C43.6333 67.6702 35.5868 75.7167 25.6667 75.7167C15.7465 75.7167 7.70001 67.6702 7.70001 57.75V52.6167L8.98335 51.3334H42.35L43.6333 52.6167Z"
        fill="#CAD3D8" />
    <path d="M15.4 33.3667H35.9333V41.0667H15.4V33.3667Z" fill="#BCC7CE" />
    <path
        d="M6.41666 13.3595V3.84999C6.41666 2.43833 7.57166 1.28333 8.98332 1.28333C9.68916 1.28333 10.3308 1.56566 10.7928 2.04049C11.2677 2.50249 11.55 3.14416 11.55 3.84999V7.41766L6.41666 13.3595Z"
        fill="#BCC7CE" />
    <path
        d="M39.7833 7.41766V3.84999C39.7833 3.14416 40.0657 2.50249 40.5405 2.04049C41.0025 1.56566 41.6442 1.28333 42.35 1.28333C43.7617 1.28333 44.9167 2.43833 44.9167 3.84999V13.3595L39.7833 7.41766Z"
        fill="#BCC7CE" />
    <path
        d="M19.25 5.1333H32.0833C39.8745 5.1333 46.2 11.4589 46.2 19.25V25.6666C46.2 30.6242 42.1742 34.65 37.2167 34.65H14.1167C9.15915 34.65 5.13333 30.6242 5.13333 25.6666V19.25C5.13333 11.4589 11.4589 5.1333 19.25 5.1333Z"
        fill="#DCE4EA" />
    <path
        d="M41.0667 19.25V25.6667C41.0667 27.7931 39.3431 29.5167 37.2167 29.5167H14.1167C11.9902 29.5167 10.2667 27.7931 10.2667 25.6667V19.25C10.2667 15.3653 12.723 12.062 16.17 10.8069C17.6022 10.2859 19.1871 10.6119 20.4371 11.4833C21.388 12.1467 23.0127 12.832 25.6667 12.832C28.3206 12.832 29.9466 12.1455 30.8962 11.4833C32.1462 10.6119 33.7311 10.2846 35.1633 10.8069C38.6104 12.062 41.0667 15.3653 41.0667 19.25Z"
        fill="#0A365E" />
    <path
        d="M43.6333 44.9167V52.6167H37.1397C36.498 52.6167 35.9462 53.0915 35.8692 53.7332C35.3173 58.8793 30.9668 62.8833 25.6667 62.8833C20.3665 62.8833 16.016 58.8793 15.4642 53.7332C15.3872 53.0915 14.8353 52.6167 14.1937 52.6167H7.70001V44.9167C7.70001 42.0805 9.99718 39.7833 12.8333 39.7833H38.5C41.3362 39.7833 43.6333 42.0805 43.6333 44.9167Z"
        fill="#DCE4EA" />
    <path
        d="M25.6667 57.7499C28.5017 57.7499 30.8 55.4517 30.8 52.6166C30.8 49.7815 28.5017 47.4833 25.6667 47.4833C22.8316 47.4833 20.5333 49.7815 20.5333 52.6166C20.5333 55.4517 22.8316 57.7499 25.6667 57.7499Z"
        fill="#03CDE2" />
    <path
        d="M17.9667 23.1C19.3842 23.1 20.5333 21.6636 20.5333 19.8917C20.5333 18.1198 19.3842 16.6833 17.9667 16.6833C16.5491 16.6833 15.4 18.1198 15.4 19.8917C15.4 21.6636 16.5491 23.1 17.9667 23.1Z"
        fill="#10DDFF" />
    <path
        d="M33.3667 23.1C34.7842 23.1 35.9333 21.6636 35.9333 19.8917C35.9333 18.1198 34.7842 16.6833 33.3667 16.6833C31.9491 16.6833 30.8 18.1198 30.8 19.8917C30.8 21.6636 31.9491 23.1 33.3667 23.1Z"
        fill="#10DDFF" />
    <path
        d="M26.95 25.6666H24.3833C23.6737 25.6666 23.1 25.093 23.1 24.3833C23.1 23.6736 23.6737 23.1 24.3833 23.1H26.95C27.6597 23.1 28.2333 23.6736 28.2333 24.3833C28.2333 25.093 27.6597 25.6666 26.95 25.6666Z"
        fill="#10DDFF" />
    <path
        d="M69.3 10.2666H48.7667C48.057 10.2666 47.4833 9.69297 47.4833 8.98328C47.4833 8.2736 48.057 7.69995 48.7667 7.69995H69.3C70.0097 7.69995 70.5833 8.2736 70.5833 8.98328C70.5833 9.69297 70.0097 10.2666 69.3 10.2666Z"
        fill="#125DC9" />
    <path
        d="M69.3 16.6834H51.3333C50.6236 16.6834 50.05 16.1097 50.05 15.4C50.05 14.6903 50.6236 14.1167 51.3333 14.1167H69.3C70.0097 14.1167 70.5833 14.6903 70.5833 15.4C70.5833 16.1097 70.0097 16.6834 69.3 16.6834Z"
        fill="#125DC9" />
    <path
        d="M65.45 23.1H51.3333C50.6236 23.1 50.05 22.5263 50.05 21.8167C50.05 21.107 50.6236 20.5333 51.3333 20.5333H65.45C66.1597 20.5333 66.7333 21.107 66.7333 21.8167C66.7333 22.5263 66.1597 23.1 65.45 23.1Z"
        fill="#125DC9" />
</svg>