<svg xmlns="http://www.w3.org/2000/svg" width="77" height="77" viewBox="0 0 77 77" fill="none">
    <g clip-path="url(#clip0_1_687)">
        <path
            d="M58.4138 39.8275C57.6809 39.8275 57.0862 39.2328 57.0862 38.4999C57.0862 35.5713 59.4679 33.1896 62.3965 33.1896H70.362C71.0935 33.1896 71.6896 32.5935 71.6896 31.862V25.2241C71.6896 24.4912 72.2844 23.8965 73.0172 23.8965C73.75 23.8965 74.3448 24.4912 74.3448 25.2241V31.862C74.3448 34.0578 72.5579 35.8448 70.362 35.8448H62.3965C60.9322 35.8448 59.7414 37.0356 59.7414 38.4999C59.7414 39.2328 59.1466 39.8275 58.4138 39.8275Z"
            fill="#647FA0" />
        <path
            d="M21.2414 25.2241H14.6034C8.01462 25.2241 2.65515 19.8633 2.65515 13.2758C2.65515 12.543 3.24991 11.9482 3.98274 11.9482C4.71557 11.9482 5.31032 12.543 5.31032 13.2758C5.31032 18.4003 9.47895 22.5689 14.6034 22.5689H21.2414C21.9742 22.5689 22.5689 23.1637 22.5689 23.8965C22.5689 24.6293 21.9742 25.2241 21.2414 25.2241Z"
            fill="#647FA0" />
        <path
            d="M30.5345 70.362H19.9138C19.1809 70.362 18.5862 69.7673 18.5862 69.0344C18.5862 68.3016 19.1809 67.7069 19.9138 67.7069H30.5345C34.1946 67.7069 37.1724 64.7291 37.1724 61.0689C37.1724 60.3361 37.7671 59.7413 38.5 59.7413C39.2328 59.7413 39.8276 60.3361 39.8276 61.0689C39.8276 66.1934 35.6589 70.362 30.5345 70.362Z"
            fill="#647FA0" />
        <path
            d="M21.2414 54.4311H7.96553C7.2327 54.4311 6.63794 53.8363 6.63794 53.1035C6.63794 52.3706 7.2327 51.7759 7.96553 51.7759H21.2414C21.9742 51.7759 22.569 52.3706 22.569 53.1035C22.569 53.8363 21.9742 54.4311 21.2414 54.4311Z"
            fill="#647FA0" />
        <path
            d="M38.5 9.29308C37.7671 9.29308 37.1724 8.69832 37.1724 7.9655C37.1724 6.50117 35.9815 5.31032 34.5172 5.31032H27.8793C27.1465 5.31032 26.5517 4.71557 26.5517 3.98274C26.5517 3.24991 27.1465 2.65515 27.8793 2.65515H34.5172C37.4459 2.65515 39.8276 5.03684 39.8276 7.9655C39.8276 8.69832 39.2328 9.29308 38.5 9.29308Z"
            fill="#647FA0" />
        <path
            d="M38.4999 17.2586C37.7671 17.2586 37.1724 16.6639 37.1724 15.931V7.96553C37.1724 7.2327 37.7671 6.63794 38.4999 6.63794C39.2328 6.63794 39.8275 7.2327 39.8275 7.96553V15.931C39.8275 16.6639 39.2328 17.2586 38.4999 17.2586Z"
            fill="#647FA0" />
        <path
            d="M49.1207 19.9138C48.3878 19.9138 47.7931 19.319 47.7931 18.5862C47.7931 15.6576 50.1748 13.2759 53.1034 13.2759H57.0862C57.8177 13.2759 58.4138 12.6798 58.4138 11.9483V7.96553C58.4138 7.2327 59.0085 6.63794 59.7414 6.63794C60.4742 6.63794 61.069 7.2327 61.069 7.96553V11.9483C61.069 14.1441 59.282 15.931 57.0862 15.931H53.1034C51.6391 15.931 50.4483 17.1219 50.4483 18.5862C50.4483 19.319 49.8535 19.9138 49.1207 19.9138Z"
            fill="#647FA0" />
        <path
            d="M73.0172 55.7587C72.2844 55.7587 71.6897 55.1639 71.6897 54.4311V50.4483C71.6897 49.7168 71.0936 49.1207 70.3621 49.1207H57.7168C54.9568 49.1207 53.1035 46.9873 53.1035 43.8104C53.1035 43.0775 53.6982 42.4828 54.431 42.4828C55.1639 42.4828 55.7586 43.0775 55.7586 43.8104C55.7586 44.6096 55.9498 46.4655 57.7168 46.4655H70.3621C72.5579 46.4655 74.3448 48.2525 74.3448 50.4483V54.4311C74.3448 55.1639 73.7501 55.7587 73.0172 55.7587Z"
            fill="#647FA0" />
        <path
            d="M55.7586 66.3793C55.0258 66.3793 54.431 65.7845 54.431 65.0517C54.431 64.3202 53.8349 63.7241 53.1034 63.7241C50.1748 63.7241 47.7931 61.3424 47.7931 58.4138C47.7931 57.6809 48.3878 57.0862 49.1207 57.0862C49.8535 57.0862 50.4483 57.6809 50.4483 58.4138C50.4483 59.8781 51.6391 61.0689 53.1034 61.0689C55.2993 61.0689 57.0862 62.8559 57.0862 65.0517C57.0862 65.7845 56.4914 66.3793 55.7586 66.3793Z"
            fill="#647FA0" />
        <path
            d="M3.98276 13.2758C6.18238 13.2758 7.96552 11.4927 7.96552 9.29306C7.96552 7.09344 6.18238 5.3103 3.98276 5.3103C1.78314 5.3103 0 7.09344 0 9.29306C0 11.4927 1.78314 13.2758 3.98276 13.2758Z"
            fill="#CAD3D8" />
        <path
            d="M23.8966 7.96552C26.0962 7.96552 27.8793 6.18238 27.8793 3.98276C27.8793 1.78314 26.0962 0 23.8966 0C21.697 0 19.9138 1.78314 19.9138 3.98276C19.9138 6.18238 21.697 7.96552 23.8966 7.96552Z"
            fill="#CAD3D8" />
        <path
            d="M73.0172 25.2242C75.2169 25.2242 77 23.441 77 21.2414C77 19.0418 75.2169 17.2587 73.0172 17.2587C70.8176 17.2587 69.0345 19.0418 69.0345 21.2414C69.0345 23.441 70.8176 25.2242 73.0172 25.2242Z"
            fill="#CAD3D8" />
        <path
            d="M73.0172 62.3965C75.2169 62.3965 77 60.6134 77 58.4138C77 56.2142 75.2169 54.431 73.0172 54.431C70.8176 54.431 69.0345 56.2142 69.0345 58.4138C69.0345 60.6134 70.8176 62.3965 73.0172 62.3965Z"
            fill="#CAD3D8" />
        <path
            d="M15.9311 73.0173C18.1307 73.0173 19.9138 71.2341 19.9138 69.0345C19.9138 66.8349 18.1307 65.0518 15.9311 65.0518C13.7314 65.0518 11.9483 66.8349 11.9483 69.0345C11.9483 71.2341 13.7314 73.0173 15.9311 73.0173Z"
            fill="#CAD3D8" />
        <path
            d="M3.98276 57.0862C6.18238 57.0862 7.96552 55.3031 7.96552 53.1035C7.96552 50.9039 6.18238 49.1207 3.98276 49.1207C1.78314 49.1207 0 50.9039 0 53.1035C0 55.3031 1.78314 57.0862 3.98276 57.0862Z"
            fill="#CAD3D8" />
        <path
            d="M59.7414 7.96552C61.941 7.96552 63.7241 6.18238 63.7241 3.98276C63.7241 1.78314 61.941 0 59.7414 0C57.5417 0 55.7586 1.78314 55.7586 3.98276C55.7586 6.18238 57.5417 7.96552 59.7414 7.96552Z"
            fill="#CAD3D8" />
        <path
            d="M38.5 61.069C50.9645 61.069 61.069 50.9645 61.069 38.5C61.069 26.0355 50.9645 15.931 38.5 15.931C26.0355 15.931 15.931 26.0355 15.931 38.5C15.931 50.9645 26.0355 61.069 38.5 61.069Z"
            fill="#CAD3D8" />
        <path
            d="M55.7586 70.3621C55.0258 70.3621 54.431 69.7673 54.431 69.0345V65.0517C54.431 64.3189 55.0258 63.7241 55.7586 63.7241C56.4914 63.7241 57.0862 64.3189 57.0862 65.0517V69.0345C57.0862 69.7673 56.4914 70.3621 55.7586 70.3621Z"
            fill="#647FA0" />
        <path d="M27.8793 35.8448H49.1207V51.7759H27.8793V35.8448Z" fill="#647FA0" />
        <path d="M34.5172 41.1552H42.4827V46.4655H34.5172V41.1552Z" fill="white" />
        <path
            d="M38.5 22.569C34.1004 22.569 30.5345 26.1349 30.5345 30.5345V35.8448H35.8448V30.5345C35.8448 29.0675 37.0343 27.8793 38.5 27.8793C39.9657 27.8793 41.1552 29.0675 41.1552 30.5345V35.8448H46.4655V30.5345C46.4655 26.1349 42.8996 22.569 38.5 22.569Z"
            fill="white" />
        <path
            d="M55.7586 76.9999C57.9583 76.9999 59.7414 75.2168 59.7414 73.0172C59.7414 70.8176 57.9583 69.0344 55.7586 69.0344C53.559 69.0344 51.7759 70.8176 51.7759 73.0172C51.7759 75.2168 53.559 76.9999 55.7586 76.9999Z"
            fill="#CAD3D8" />
    </g>
    <defs>
        <clipPath id="clip0_1_687">
            <rect width="77" height="77" fill="white" />
        </clipPath>
    </defs>
</svg>