<svg xmlns="http://www.w3.org/2000/svg" width="77" height="77" viewBox="0 0 77 77" fill="none">
    <g clip-path="url(#clip0_1_668)">
        <path
            d="M65.7207 49.7793C64.4741 49.7793 63.4648 48.77 63.4648 47.5234V18.1973H47.6738C46.4272 18.1973 45.418 17.188 45.418 15.9414C45.418 14.6948 46.4272 13.6855 47.6738 13.6855H65.7207C66.9673 13.6855 67.9766 14.6948 67.9766 15.9414V47.5234C67.9766 48.77 66.9673 49.7793 65.7207 49.7793Z"
            fill="#1ADFF3" />
        <path
            d="M38.6504 49.7793L36.3945 52.0352H13.5352L11.2793 49.7793C15.0244 49.7793 18.0469 46.7562 18.0469 43.0117V36.2441H31.8828V43.0117C31.8828 46.7562 34.9053 49.7793 38.6504 49.7793Z"
            fill="#E4EAF8" />
        <path
            d="M38.6504 49.7793L36.3945 52.0352H24.9648V36.2441H31.8828V43.0117C31.8828 46.7562 34.9053 49.7793 38.6504 49.7793Z"
            fill="#9ABADB" />
        <path
            d="M56.6973 77H24.9648C23.7182 77 22.709 75.9907 22.709 74.7441V52.0352C22.709 50.7886 23.7182 49.7793 24.9648 49.7793C26.2114 49.7793 27.2207 50.7886 27.2207 52.0352V72.4883H56.6973C57.9439 72.4883 58.9531 73.4975 58.9531 74.7441C58.9531 75.9907 57.9439 77 56.6973 77Z"
            fill="#03CDE2" />
        <path
            d="M49.9297 2.25586V31.7324L45.418 36.2441H4.51172L0 31.7324V2.25586C0 0.992226 0.992226 0 2.25586 0H47.6738C48.9375 0 49.9297 0.992226 49.9297 2.25586Z"
            fill="#125DC9" />
        <path
            d="M49.9297 2.25586V31.7324L45.418 36.2441H24.9648V0H47.6738C48.9375 0 49.9297 0.992226 49.9297 2.25586Z"
            fill="#647FA0" />
        <path
            d="M49.9297 31.7324V38.5C49.9297 39.7636 48.9375 40.7559 47.6738 40.7559H2.25586C0.992226 40.7559 0 39.7636 0 38.5V31.7324H49.9297Z"
            fill="#E0F4FF" />
        <path
            d="M49.9297 31.7324V38.5C49.9297 39.7636 48.9375 40.7559 47.6738 40.7559H24.9648V31.7324H49.9297Z"
            fill="#E4EAF8" />
        <path d="M4.51172 4.51172H45.418V27.2207H4.51172V4.51172Z" fill="#DCE4EA" />
        <path d="M24.9648 4.51172H45.418V27.2207H24.9648V4.51172Z" fill="#CAD3D8" />
        <path
            d="M40.9062 52.0352C40.9062 53.2982 39.914 54.291 38.6504 54.291H11.2793C10.0157 54.291 9.02344 53.2982 9.02344 52.0352C9.02344 50.7715 10.0157 49.7793 11.2793 49.7793H38.6504C39.914 49.7793 40.9062 50.7715 40.9062 52.0352Z"
            fill="#E0F4FF" />
        <path
            d="M40.9062 52.0352C40.9062 53.2982 39.914 54.291 38.6504 54.291H24.9648V49.7793H38.6504C39.914 49.7793 40.9062 50.7715 40.9062 52.0352Z"
            fill="#E4EAF8" />
        <path
            d="M77 47.5234V67.9766L72.4883 72.4883H58.9531L54.4414 67.9766V47.5234C54.4414 46.2598 55.4336 45.2676 56.6973 45.2676H74.7441C76.0078 45.2676 77 46.2598 77 47.5234Z"
            fill="#125DC9" />
        <path
            d="M77 47.5234V67.9766L72.4883 72.4883H65.7207V45.2676H74.7441C76.0078 45.2676 77 46.2598 77 47.5234Z"
            fill="#647FA0" />
        <path d="M58.9531 49.7793H72.4883V63.4648H58.9531V49.7793Z" fill="#03CDE2" />
        <path d="M65.7207 49.7793H72.4883V63.4648H65.7207V49.7793Z" fill="#1ADFF3" />
        <path
            d="M77 67.9766V74.7441C77 76.0072 76.0078 77 74.7441 77H56.6973C55.4336 77 54.4414 76.0072 54.4414 74.7441V67.9766H77Z"
            fill="#E0F4FF" />
        <path d="M77 67.9766V74.7441C77 76.0072 76.0078 77 74.7441 77H65.7207V67.9766H77Z"
            fill="#E4EAF8" />
    </g>
    <defs>
        <clipPath id="clip0_1_668">
            <rect width="77" height="77" fill="white" />
        </clipPath>
    </defs>
</svg>