<svg xmlns="http://www.w3.org/2000/svg" width="60" height="60" viewBox="0 0 60 60" fill="none">
    <mask id="mask0_1_1038" style="mask-type:luminance" maskUnits="userSpaceOnUse" x="0" y="0"
        width="60" height="60">
        <path d="M0 3.8147e-06H60V60H0V3.8147e-06Z" fill="white" />
    </mask>
    <g mask="url(#mask0_1_1038)">
        <path d="M11.5054 38.7278V6.77977H48.9669V58.8281H11.5054V55.4248" stroke="black"
            stroke-width="2" stroke-miterlimit="10" stroke-linecap="round" stroke-linejoin="round" />
        <path d="M17.0939 6.67861V1.17186H54.5554V53.2202H49.1118" stroke="black" stroke-width="2"
            stroke-miterlimit="10" stroke-linecap="round" stroke-linejoin="round" />
        <path
            d="M42.9223 24.2685C42.9223 31.2749 37.2425 36.9546 30.2362 36.9546C23.2298 36.9546 17.5499 31.2749 17.5499 24.2685C17.5499 17.2621 23.2298 11.5823 30.2362 11.5823C37.2425 11.5823 42.9223 17.2621 42.9223 24.2685Z"
            stroke="black" stroke-width="2" stroke-miterlimit="10" stroke-linecap="round"
            stroke-linejoin="round" />
        <path
            d="M35.2912 29.5195H25.1812V29.4405C25.1812 26.6487 27.4444 24.3854 30.2362 24.3854C33.0279 24.3854 35.2912 26.6487 35.2912 29.4405V29.5195Z"
            stroke="#25AC25" stroke-width="2" stroke-miterlimit="10" stroke-linecap="round"
            stroke-linejoin="round" />
        <path
            d="M33.7776 20.8413C33.7776 22.7987 32.1921 24.3855 30.2361 24.3855C28.2802 24.3855 26.6947 22.7987 26.6947 20.8413C26.6947 18.8838 28.2802 17.2971 30.2361 17.2971C32.1921 17.2971 33.7776 18.8838 33.7776 20.8413Z"
            stroke="#25AC25" stroke-width="2" stroke-miterlimit="10" stroke-linecap="round"
            stroke-linejoin="round" />
        <path d="M20.6 41.4053H43.0419" stroke="black" stroke-width="2" stroke-miterlimit="10"
            stroke-linecap="round" stroke-linejoin="round" />
        <path d="M22.7942 47.0042H43.042" stroke="black" stroke-width="2" stroke-miterlimit="10"
            stroke-linecap="round" stroke-linejoin="round" />
        <path d="M20.6 52.6033H31.2128" stroke="black" stroke-width="2" stroke-miterlimit="10"
            stroke-linecap="round" stroke-linejoin="round" />
        <path
            d="M13.9788 55.5383C9.27297 55.5383 5.44446 51.7099 5.44446 47.004C5.44446 42.2984 9.27297 38.4699 13.9788 38.4699C18.6845 38.4699 22.5129 42.2984 22.5129 47.004C22.5129 51.7099 18.6845 55.5383 13.9788 55.5383Z"
            stroke="black" stroke-width="2" stroke-miterlimit="10" stroke-linecap="round"
            stroke-linejoin="round" />
        <path d="M11.8947 47.2997L13.9787 48.8821L16.5938 45.7173" stroke="black" stroke-width="2"
            stroke-miterlimit="10" stroke-linecap="round" stroke-linejoin="round" />
    </g>
</svg>