<svg width="432" height="98" viewBox="0 0 432 98" fill="none" xmlns="http://www.w3.org/2000/svg">
<path d="M47.68 97.2299C37.96 97.2299 29.62 95.3 22.65 91.43C15.68 87.56 10.33 82.12 6.58997 75.11C2.84997 68.1 0.97998 59.82 0.97998 50.28C0.97998 40.74 2.84997 32.48 6.58997 25.51C10.33 18.54 15.68 13.13 22.65 9.25998C29.62 5.38998 37.96 3.44998 47.68 3.44998C53.96 3.44998 59.68 4.32997 64.84 6.08997C69.67 7.73997 73.82 10.09 77.3 13.13C77.73 13.5 77.86 14.11 77.65 14.64L72.34 27.9799C72.02 28.7899 71.01 29.09 70.3 28.57C66.85 26.02 63.54 24.1799 60.4 23.0399C56.83 21.7499 52.81 21.0999 48.34 21.0999C39.83 21.0999 33.31 23.62 28.8 28.65C24.28 33.68 22.03 40.89 22.03 50.26C22.03 59.64 24.29 66.86 28.8 71.93C33.31 77.01 39.83 79.5399 48.34 79.5399C52.81 79.5399 56.83 78.8899 60.4 77.5999C63.55 76.4599 66.85 74.62 70.3 72.07C71.01 71.55 72.01 71.85 72.34 72.66L77.65 85.99C77.86 86.52 77.72 87.14 77.28 87.52C73.81 90.49 69.66 92.81 64.84 94.5C59.68 96.32 53.96 97.2299 47.68 97.2299Z" fill="url(#paint0_linear_7_1008)"/>
<path d="M113.73 97.2299C108.05 97.2299 103.06 95.8499 98.77 93.0999C94.47 90.3499 91.11 86.44 88.71 81.36C86.3 76.29 85.1 70.1799 85.1 63.0399C85.1 55.9899 86.3 49.9299 88.71 44.8499C91.12 39.7799 94.47 35.88 98.77 33.18C103.07 30.47 108.06 29.12 113.73 29.12C118.97 29.12 123.68 30.39 127.85 32.93C132.02 35.47 134.75 38.89 136.04 43.19H134.62L136.03 31.5999C136.11 30.9199 136.69 30.41 137.37 30.41H153.41C154.2 30.41 154.82 31.08 154.75 31.87C154.54 34.23 154.35 36.6 154.17 38.99C153.95 41.87 153.85 44.69 153.85 47.44V94.47C153.85 95.21 153.25 95.82 152.5 95.82H135.83C135.09 95.82 134.49 95.23 134.48 94.49L134.38 84.93C134.37 84.18 134.98 83.57 135.73 83.57H135.92C134.54 87.7 131.79 91.01 127.66 93.5C123.53 95.99 118.89 97.2299 113.73 97.2299ZM119.66 82.52C124.13 82.52 127.74 80.93 130.5 77.75C133.25 74.57 134.63 69.6699 134.63 63.0399C134.63 56.4199 133.25 51.56 130.5 48.46C127.75 45.36 124.13 43.82 119.66 43.82C115.19 43.82 111.58 45.37 108.82 48.46C106.07 51.56 104.69 56.4199 104.69 63.0399C104.69 69.66 106.04 74.57 108.75 77.75C111.47 80.93 115.1 82.52 119.66 82.52Z" fill="url(#paint1_linear_7_1008)"/>
<path d="M169.84 94.46V2.20996C169.84 1.46996 170.44 0.859985 171.19 0.859985H187.97C188.71 0.859985 189.32 1.45996 189.32 2.20996V57.62H189.58L213.43 30.8499C213.69 30.5599 214.05 30.4 214.44 30.4H234.03C235.2 30.4 235.81 31.78 235.03 32.65L208.06 62.62C207.23 63.54 205.71 62.95 205.71 61.72C205.71 60.48 207.25 59.9 208.07 60.83L236.77 93.57C237.53 94.44 236.92 95.81 235.76 95.81H215.47C215.09 95.81 214.72 95.65 214.46 95.36L189.58 67.43H189.32V94.46C189.32 95.2 188.72 95.81 187.97 95.81H171.19C170.44 95.81 169.84 95.21 169.84 94.46Z" fill="url(#paint2_linear_7_1008)"/>
<path d="M275.75 97.2299C264.4 97.2299 255.54 94.18 249.18 88.07C242.81 81.96 239.63 73.67 239.63 63.17C239.63 56.38 240.98 50.44 243.69 45.37C246.4 40.3 250.18 36.32 255.04 33.44C259.9 30.56 265.6 29.12 272.13 29.12C278.58 29.12 283.98 30.5 288.32 33.25C292.66 36 295.93 39.85 298.12 44.8C300.31 49.75 301.41 55.49 301.41 62.02V65.19C301.41 65.93 300.81 66.5399 300.06 66.5399H256.96C256.22 66.5399 255.61 65.94 255.61 65.19V58.21C255.61 57.47 256.21 56.86 256.96 56.86H287.22L287.13 56.93C286.3 57.62 285.01 57.09 284.93 56.01C284.62 51.88 283.56 48.66 281.74 46.34C279.55 43.55 276.39 42.15 272.26 42.15C267.7 42.15 264.2 43.83 261.75 47.18C259.3 50.53 258.07 55.35 258.07 61.63V63.69C258.07 70.06 259.64 74.78 262.78 77.88C265.92 80.98 270.45 82.52 276.39 82.52C279.92 82.52 283.25 82.07 286.39 81.17C289.05 80.4 291.6 79.25 294.05 77.72C294.75 77.28 295.67 77.5899 295.99 78.3499L300.36 88.75C300.61 89.33 300.42 90.02 299.9 90.38C296.84 92.48 293.38 94.12 289.5 95.3C285.23 96.58 280.65 97.2299 275.75 97.2299Z" fill="url(#paint3_linear_7_1008)"/>
<path d="M305.32 93.78L345.8 5.69998C346.03 5.18998 346.54 4.86996 347.1 4.86996H361.91C362.47 4.86996 362.97 5.18998 363.21 5.69998L404.19 93.78C404.63 94.73 403.94 95.82 402.89 95.82H385.7C385.13 95.82 384.61 95.48 384.38 94.96L375.82 75.22C375.24 73.89 376.78 72.64 377.96 73.4799C379.1 74.2899 378.53 76.09 377.13 76.09H332.18C330.78 76.09 330.21 74.28 331.36 73.4799L331.46 73.41C332.65 72.59 334.17 73.83 333.59 75.16L325 94.97C324.77 95.49 324.26 95.83 323.68 95.83H306.6C305.58 95.81 304.88 94.73 305.32 93.78ZM354.44 26.02L338.8 63.12C338.36 64.15 336.96 64.31 336.31 63.39L335.93 62.8499C335.26 61.8999 335.93 60.59 337.1 60.59H372.41C373.53 60.59 374.21 61.81 373.64 62.77L373.43 63.12C372.83 64.12 371.35 64.02 370.89 62.95L354.96 26.03H354.44V26.02Z" fill="url(#paint4_linear_7_1008)"/>
<path d="M410.94 18.3499V2.85999C410.94 2.11999 411.54 1.50998 412.29 1.50998H430.49C431.23 1.50998 431.84 2.10999 431.84 2.85999V18.3499C431.84 19.0899 431.24 19.7 430.49 19.7H412.29C411.54 19.7 410.94 19.0999 410.94 18.3499ZM411.71 94.46V31.75C411.71 31.01 412.31 30.4 413.06 30.4H429.84C430.58 30.4 431.19 31 431.19 31.75V94.46C431.19 95.2 430.59 95.81 429.84 95.81H413.06C412.31 95.81 411.71 95.21 411.71 94.46Z" fill="url(#paint5_linear_7_1008)"/>
<defs>
<linearGradient id="paint0_linear_7_1008" x1="-19.9998" y1="31.0001" x2="32.6968" y2="-107.118" gradientUnits="userSpaceOnUse">
<stop stop-color="#019D8A"/>
<stop offset="1" stop-color="#0574CE"/>
</linearGradient>
<linearGradient id="paint1_linear_7_1008" x1="-19.9998" y1="31.0001" x2="32.6968" y2="-107.118" gradientUnits="userSpaceOnUse">
<stop stop-color="#019D8A"/>
<stop offset="1" stop-color="#0574CE"/>
</linearGradient>
<linearGradient id="paint2_linear_7_1008" x1="-19.9998" y1="31.0001" x2="32.6968" y2="-107.118" gradientUnits="userSpaceOnUse">
<stop stop-color="#019D8A"/>
<stop offset="1" stop-color="#0574CE"/>
</linearGradient>
<linearGradient id="paint3_linear_7_1008" x1="-19.9998" y1="31.0001" x2="32.6968" y2="-107.118" gradientUnits="userSpaceOnUse">
<stop stop-color="#019D8A"/>
<stop offset="1" stop-color="#0574CE"/>
</linearGradient>
<linearGradient id="paint4_linear_7_1008" x1="-19.9998" y1="31.0001" x2="32.6968" y2="-107.118" gradientUnits="userSpaceOnUse">
<stop stop-color="#019D8A"/>
<stop offset="1" stop-color="#0574CE"/>
</linearGradient>
<linearGradient id="paint5_linear_7_1008" x1="-19.9998" y1="31.0001" x2="32.6968" y2="-107.118" gradientUnits="userSpaceOnUse">
<stop stop-color="#019D8A"/>
<stop offset="1" stop-color="#0574CE"/>
</linearGradient>
</defs>
</svg>
