<svg xmlns="http://www.w3.org/2000/svg" width="76" height="76" viewBox="0 0 76 76" fill="none">
    <g clip-path="url(#clip0_1_567)">
        <path d="M31.3702 60.548H44.6298V71.2606H31.3702V60.548Z" fill="#A2C7F8" />
        <path d="M31.3702 60.548H36.165V71.2606H31.3702V60.548Z" fill="#8DB3DF" />
        <path
            d="M51.3039 75.3119H24.6961C23.8515 75.3119 23.1669 74.6273 23.1669 73.7827V72.6367C23.1669 71.7921 23.8515 71.1075 24.6961 71.1075H51.3039C52.1485 71.1075 52.8331 71.7921 52.8331 72.6367V73.7827C52.8331 74.6273 52.1483 75.3119 51.3039 75.3119Z"
            fill="#D8ECFE" />
        <path
            d="M30.8128 73.7827V72.6367C30.8128 71.7921 31.4974 71.1075 32.342 71.1075H24.6961C23.8515 71.1075 23.1669 71.7921 23.1669 72.6367V73.7827C23.1669 74.6273 23.8515 75.3119 24.6961 75.3119H32.342C31.4975 75.3119 30.8128 74.6273 30.8128 73.7827Z"
            fill="#C4E2FF" />
        <path
            d="M0 57.6424C0 59.3315 1.36934 60.7008 3.05841 60.7008H72.9417C74.6308 60.7008 76.0001 59.3315 76.0001 57.6424V53.1008H0V57.6424Z"
            fill="#D8ECFE" />
        <path
            d="M7.72231 57.6424V53.1008H0V57.6424C0 59.3315 1.36934 60.7008 3.05841 60.7008H10.7807C9.09165 60.7008 7.72231 59.3315 7.72231 57.6424Z"
            fill="#C4E2FF" />
        <path
            d="M40.7525 57.9213H35.2475C34.6325 57.9213 34.1342 57.4228 34.1342 56.808C34.1342 56.1932 34.6325 55.6947 35.2475 55.6947H40.7525C41.3674 55.6947 41.8657 56.1932 41.8657 56.808C41.8657 57.4228 41.3674 57.9213 40.7525 57.9213Z"
            fill="#A2C7F8" />
        <path
            d="M76 53.1009H0V10.0143C0 8.7475 1.02689 7.72046 2.2938 7.72046H73.7063C74.9731 7.72046 76.0001 8.74735 76.0001 10.0143L76 53.1009Z"
            fill="#647FA0" />
        <path
            d="M4.80715 49.0584C4.38484 49.0584 4.04255 48.7161 4.04255 48.2938V12.5276C4.04255 12.1053 4.38484 11.763 4.80715 11.763H7.72231V10.0143C7.72231 8.74735 8.7492 7.72046 10.0161 7.72046H2.2938C1.02689 7.72046 0 8.74735 0 10.0143V53.1009H7.72231V49.0584H4.80715Z"
            fill="#5E6F90" />
        <path
            d="M71.1928 11.7629H4.80714C4.38484 11.7629 4.04254 12.1052 4.04254 12.5275V48.2937C4.04254 48.716 4.38484 49.0583 4.80714 49.0583H23.1453L23.4024 48.9099L26.3462 43.8109H30.7619C31.1834 43.8109 31.5263 43.4679 31.5263 43.0463V34.8386L36.3811 26.4299C36.5119 26.2032 36.7463 26.068 37.008 26.068C37.2697 26.068 37.5041 26.2032 37.6348 26.4299L48.4335 45.1339L48.4904 45.125L48.5462 45.1354L57.1983 30.1494C57.3291 29.9229 57.5635 29.7876 57.8252 29.7876C58.0869 29.7876 58.3212 29.9229 58.452 30.1494L69.2833 48.9099L69.5406 49.0583H71.1928C71.6152 49.0583 71.9574 48.716 71.9574 48.2937V12.5275C71.9574 12.1052 71.6152 11.7629 71.1928 11.7629Z"
            fill="#FED2A4" />
        <path
            d="M61.0905 25.6138C63.2864 25.6138 65.0664 23.8337 65.0664 21.6379C65.0664 19.4421 63.2864 17.662 61.0905 17.662C58.8947 17.662 57.1146 19.4421 57.1146 21.6379C57.1146 23.8337 58.8947 25.6138 61.0905 25.6138Z"
            fill="#FE9901" />
        <path
            d="M60.173 21.6379C60.173 19.984 61.183 18.5664 62.6197 17.9672C62.1489 17.7708 61.6325 17.662 61.0905 17.662C58.8947 17.662 57.1146 19.442 57.1146 21.6379C57.1146 23.8337 58.8947 25.6138 61.0905 25.6138C61.6325 25.6138 62.1489 25.505 62.6197 25.3086C61.1831 24.7094 60.173 23.2916 60.173 21.6379Z"
            fill="#FB8801" />
        <path
            d="M10.4553 48.2937V43.8107H9.55744C9.13514 43.8107 8.79284 43.4684 8.79284 43.0461V17.9676C8.79284 17.123 9.47743 16.4384 10.322 16.4384H10.4555V12.5275C10.4555 12.1052 10.7978 11.7629 11.2201 11.7629H4.80714C4.38484 11.7629 4.04254 12.1052 4.04254 12.5275V48.2939C4.04254 48.7162 4.38484 49.0585 4.80714 49.0585H11.2199C10.7976 49.0583 10.4553 48.716 10.4553 48.2937Z"
            fill="#FFBD86" />
        <path
            d="M57.0699 30.0752L46.11 49.0583H69.5406L58.5807 30.0752C58.245 29.4938 57.4057 29.4938 57.0699 30.0752Z"
            fill="#0182FC" />
        <path
            d="M50.8182 48.9673L60.1531 32.7989L58.5807 30.0754C58.2449 29.4939 57.4057 29.4939 57.0699 30.0754L48.4904 44.9354L50.8182 48.9673Z"
            fill="#0172FB" />
        <path
            d="M43.123 35.6388H42.9517L41.7026 37.8023C41.5453 38.0747 41.2636 38.2374 40.949 38.2374C40.6343 38.2374 40.3524 38.0747 40.1952 37.8023L38.992 35.718C38.7131 35.2349 38.2136 34.9465 37.6558 34.9465C37.098 34.9465 36.5986 35.2349 36.3197 35.718L34.3679 39.0986C34.2105 39.371 33.9288 39.5338 33.6143 39.5338C33.2997 39.5338 33.0179 39.3712 32.8607 39.0986L31.3782 36.5308V43.0463C31.3782 43.3861 31.1018 43.6625 30.7622 43.6625H26.2608L23.1456 49.0583H50.8712L43.123 35.6388Z"
            fill="#0593FC" />
        <path
            d="M31.3781 43.0463C31.3781 43.0466 31.3779 43.047 31.3779 43.0473L33.3424 39.6448C33.0986 39.5783 32.8757 39.4216 32.732 39.1728L31.3781 36.8276V43.0463Z"
            fill="#0182FC" />
        <path
            d="M30.7619 43.6624H26.2605L23.1453 49.0583H27.9074L31.0733 43.5748C30.9816 43.6292 30.876 43.6624 30.7619 43.6624Z"
            fill="#0182FC" />
        <path
            d="M63.1196 6.82252L62.7886 6.70154L47.6879 21.8021L47.706 22.0059L51.8615 26.1614L52.057 26.1712L67.1577 11.0706L66.88 10.583L63.1196 6.82252Z"
            fill="#8DB3DF" />
        <path
            d="M72.786 3.58361L70.2756 1.07308C69.7623 0.559786 68.9302 0.559786 68.4171 1.07308L65.2105 4.27963L65.4618 4.74083L69.2692 8.54825L69.5796 8.64874L72.7862 5.44219C73.2993 4.92889 73.2993 4.09676 72.786 3.58361Z"
            fill="#8DB3DF" />
        <path
            d="M37.7634 26.3557C37.4276 25.7742 36.5884 25.7742 36.2526 26.3557L31.3779 34.7989V36.8277L32.7318 39.1729C33.124 39.852 34.1041 39.852 34.4963 39.1729L36.4481 35.7922C36.9849 34.8627 38.3266 34.8627 38.8633 35.7922L40.0667 37.8766C40.4587 38.5557 41.439 38.5557 41.8312 37.8766L43.123 35.6389L37.7634 26.3557Z"
            fill="white" />
        <path
            d="M37.7634 26.3557C37.4276 25.7742 36.5884 25.7742 36.2526 26.3557L31.3779 34.7989V36.8277L32.7318 39.1729C32.8755 39.4218 33.0985 39.5784 33.3422 39.6449L39.389 29.1716L37.7634 26.3557Z"
            fill="#EAF6FF" />
        <path
            d="M29.9973 16.4386H10.3219C9.47732 16.4386 8.79272 17.1232 8.79272 17.9678V23.1728L9.15803 23.3257H31.1339L31.5264 23.1728V17.9678C31.5265 17.1233 30.8419 16.4386 29.9973 16.4386Z"
            fill="#FE646F" />
        <path
            d="M13.5841 17.9678C13.5841 17.1232 14.2687 16.4386 15.1133 16.4386H10.3219C9.47732 16.4386 8.79272 17.1232 8.79272 17.9678V23.1728L9.15803 23.3257H13.9494L13.5841 23.1728V17.9678Z"
            fill="#FD4755" />
        <path
            d="M30.7619 43.8109H9.55733C9.13502 43.8109 8.79272 43.4686 8.79272 43.0463V23.1727H31.5265V43.0463C31.5265 43.4686 31.1842 43.8109 30.7619 43.8109Z"
            fill="white" />
        <path
            d="M13.5841 43.0463V23.1727H8.79272V43.0463C8.79272 43.4686 9.13502 43.8109 9.55733 43.8109H14.3487C13.9266 43.8109 13.5841 43.4686 13.5841 43.0463Z"
            fill="#EAF6FF" />
        <path
            d="M27.7037 37.8192H12.6157C12.0007 37.8192 11.5024 37.3208 11.5024 36.7059C11.5024 36.0911 12.0007 35.5927 12.6157 35.5927H27.7037C28.3186 35.5927 28.8169 36.0911 28.8169 36.7059C28.8169 37.3208 28.3185 37.8192 27.7037 37.8192Z"
            fill="#8DB3DF" />
        <path
            d="M23.1925 39.0809C24.5042 39.0809 25.5675 38.0176 25.5675 36.7059C25.5675 35.3943 24.5042 34.3309 23.1925 34.3309C21.8808 34.3309 20.8175 35.3943 20.8175 36.7059C20.8175 38.0176 21.8808 39.0809 23.1925 39.0809Z"
            fill="#0593FC" />
        <path
            d="M27.7037 31.2438H12.6157C12.0007 31.2438 11.5024 30.7453 11.5024 30.1305C11.5024 29.5157 12.0007 29.0172 12.6157 29.0172H27.7037C28.3186 29.0172 28.8169 29.5157 28.8169 30.1305C28.8169 30.7453 28.3185 31.2438 27.7037 31.2438Z"
            fill="#8DB3DF" />
        <path
            d="M17.0758 32.5055C18.3875 32.5055 19.4508 31.4422 19.4508 30.1305C19.4508 28.8188 18.3875 27.7555 17.0758 27.7555C15.7641 27.7555 14.7008 28.8188 14.7008 30.1305C14.7008 31.4422 15.7641 32.5055 17.0758 32.5055Z"
            fill="#0593FC" />
        <path
            d="M27.8404 20.6925C28.4552 20.6925 28.9537 20.1941 28.9537 19.5792C28.9537 18.9644 28.4552 18.4659 27.8404 18.4659C27.2255 18.4659 26.7271 18.9644 26.7271 19.5792C26.7271 20.1941 27.2255 20.6925 27.8404 20.6925Z"
            fill="#FFBD86" />
        <path
            d="M24.7726 20.6925C25.3875 20.6925 25.8859 20.1941 25.8859 19.5792C25.8859 18.9644 25.3875 18.4659 24.7726 18.4659C24.1578 18.4659 23.6594 18.9644 23.6594 19.5792C23.6594 20.1941 24.1578 20.6925 24.7726 20.6925Z"
            fill="#FFBD86" />
        <path
            d="M21.705 20.6925C22.3199 20.6925 22.8183 20.1941 22.8183 19.5792C22.8183 18.9644 22.3199 18.4659 21.705 18.4659C21.0902 18.4659 20.5917 18.9644 20.5917 19.5792C20.5917 20.1941 21.0902 20.6925 21.705 20.6925Z"
            fill="#FFBD86" />
        <path
            d="M71.3342 2.13171L70.2755 1.07321C69.7622 0.559908 68.9301 0.559908 68.4169 1.07321L65.2104 4.27975L67.1983 6.26763L71.3342 2.13171Z"
            fill="#799FCA" />
        <path
            d="M52.2045 21.2615L64.7765 8.68941L62.7887 6.70154L47.6881 21.8021L47.7061 22.0059L51.8616 26.1614L52.0572 26.1712L54.0451 24.1833L52.2046 22.3428C51.906 22.0442 51.906 21.56 52.2045 21.2615Z"
            fill="#799FCA" />
        <path
            d="M47.6879 21.802C47.5643 21.9257 47.4666 22.0726 47.4006 22.2344L44.8388 28.506C44.7067 28.8295 45.0294 29.1522 45.3529 29.0201L51.6245 26.4583C51.7863 26.3923 51.9332 26.2946 52.0569 26.171L47.6879 21.802Z"
            fill="#647FA0" />
        <path d="M62.7812 6.70776L65.2028 4.28626L69.5712 8.65471L67.1497 11.0762L62.7812 6.70776Z"
            fill="#C4E2FF" />
        <path d="M62.7815 6.70789L65.203 4.28638L67.1907 6.27404L64.7692 8.69555L62.7815 6.70789Z"
            fill="#B3DAFE" />
    </g>
    <defs>
        <clipPath id="clip0_1_567">
            <rect width="76" height="76" fill="white" />
        </clipPath>
    </defs>
</svg>