<svg xmlns="http://www.w3.org/2000/svg" width="77" height="77" viewBox="0 0 77 77" fill="none">
    <g clip-path="url(#clip0_1_713)">
        <path
            d="M56.3856 75.1731H21.4411C18.0552 75.1731 15.3105 72.4283 15.3105 69.0425V5.1306C15.3105 1.74476 18.0552 -1 21.4411 -1H56.3856C59.7715 -1 62.5162 1.74476 62.5162 5.1306V69.0425C62.5164 72.4283 59.7715 75.1731 56.3856 75.1731Z"
            fill="#3D6D93" />
        <path
            d="M56.3856 -1H51.7877C55.1736 -1 57.9183 1.74476 57.9183 5.1306V69.0425C57.9183 72.4283 55.1736 75.1731 51.7877 75.1731H56.3856C59.7715 75.1731 62.5162 72.4283 62.5162 69.0425V5.1306C62.5164 1.74476 59.7715 -1 56.3856 -1Z"
            fill="#335E80" />
        <path
            d="M50.1711 4.82411C50.1711 5.96849 49.2435 6.89611 48.0991 6.89611H29.7276C28.5832 6.89611 27.6556 5.96849 27.6556 4.82411C27.6556 4.14688 27.1066 3.59805 26.4295 3.59805H22.2074C20.9378 3.59805 19.9084 4.62728 19.9084 5.89708V68.2763C19.9084 69.546 20.9376 70.5753 22.2074 70.5753H55.6193C56.8889 70.5753 57.9183 69.5461 57.9183 68.2763V5.89693C57.9183 4.62728 56.8891 3.5979 55.6193 3.5979H51.3972C50.7201 3.5979 50.1711 4.14688 50.1711 4.82411Z"
            fill="#F9F7F8" />
        <path
            d="M38.9134 4.09746C39.5482 4.09746 40.0629 3.58284 40.0629 2.94802C40.0629 2.31321 39.5482 1.79858 38.9134 1.79858C38.2786 1.79858 37.764 2.31321 37.764 2.94802C37.764 3.58284 38.2786 4.09746 38.9134 4.09746Z"
            fill="#335E80" />
        <path
            d="M14.0794 33.8743C21.3986 33.8743 27.332 27.9409 27.332 20.6217C27.332 13.3024 21.3986 7.36902 14.0794 7.36902C6.76013 7.36902 0.826721 13.3024 0.826721 20.6217C0.826721 27.9409 6.76013 33.8743 14.0794 33.8743Z"
            fill="#FFE179" />
        <path
            d="M14.0794 7.36902C13.2947 7.36902 12.5275 7.44117 11.7803 7.5718C18.003 8.66084 22.7339 14.0868 22.7339 20.6215C22.7339 27.1562 18.003 32.5822 11.7803 33.6712C12.5275 33.802 13.2947 33.874 14.0794 33.874C21.3985 33.874 27.3319 27.9407 27.3319 20.6214C27.3319 13.302 21.3987 7.36902 14.0794 7.36902Z"
            fill="#FBD268" />
        <path
            d="M18.6774 27.5186H9.48146C8.21181 27.5186 7.18243 26.4894 7.18243 25.2196V16.0236C7.18243 14.754 8.21166 13.7246 9.48146 13.7246H18.6774C19.9471 13.7246 20.9765 14.7538 20.9765 16.0236V25.2196C20.9763 26.4893 19.9471 27.5186 18.6774 27.5186Z"
            fill="#F58A97" />
        <path
            d="M18.6774 13.7246H14.0793C15.349 13.7246 16.3784 14.7538 16.3784 16.0236V25.2196C16.3784 26.4893 15.349 27.5186 14.0793 27.5186H18.6773C19.9469 27.5186 20.9763 26.4893 20.9763 25.2196V16.0236C20.9763 14.754 19.9471 13.7246 18.6774 13.7246Z"
            fill="#F07281" />
        <path
            d="M14.0794 22.9207C15.3491 22.9207 16.3784 21.8914 16.3784 20.6217C16.3784 19.3519 15.3491 18.3226 14.0794 18.3226C12.8096 18.3226 11.7803 19.3519 11.7803 20.6217C11.7803 21.8914 12.8096 22.9207 14.0794 22.9207Z"
            fill="white" />
        <path
            d="M13.2525 65.1504C20.5716 65.1504 26.505 59.217 26.505 51.8979C26.505 44.5787 20.5716 38.6454 13.2525 38.6454C5.93334 38.6454 0 44.5787 0 51.8979C0 59.217 5.93334 65.1504 13.2525 65.1504Z"
            fill="#8FD8FA" />
        <path
            d="M13.2525 38.6451C12.4143 38.6451 11.5956 38.7265 10.8005 38.8753C16.9476 40.0258 21.6012 45.4167 21.6012 51.8978C21.6012 58.3787 16.9478 63.7696 10.8005 64.9203C11.5956 65.069 12.4143 65.1504 13.2525 65.1504C20.5717 65.1504 26.505 59.2171 26.505 51.8979C26.505 44.5788 20.5718 38.6451 13.2525 38.6451Z"
            fill="#6BCDFE" />
        <path
            d="M17.4731 46.8158C16.4117 45.5954 14.562 45.4666 13.3417 46.5279C12.6919 47.0931 12.3238 47.9157 12.3353 48.7768V49.4305C10.2372 49.485 8.23992 48.5916 6.88338 47.0222C6.67986 46.7867 6.29736 46.8631 6.20958 47.1619C5.72918 48.7942 5.07189 52.901 9.72053 54.9672C8.79664 55.5945 7.75134 56.007 6.66096 56.1832C6.37769 56.229 6.51754 56.7518 6.58925 56.9389C7.08259 58.2265 12.6469 58.7604 16.0548 55.9576C18.1441 54.2393 18.7832 51.7928 19.0009 50.4746C19.3622 50.102 19.8951 49.4576 20.2718 48.5224C20.4473 48.0871 20.5562 47.6699 20.6213 47.2889C20.7183 46.7227 20.1362 46.2957 19.6192 46.5461C19.4037 46.6504 19.1589 46.7411 18.8847 46.8023C18.2891 46.9348 17.7828 46.8774 17.4731 46.8158Z"
            fill="white" />
        <path
            d="M63.7474 65.1504C71.0666 65.1504 77 59.217 77 51.8978C77 44.5785 71.0666 38.6451 63.7474 38.6451C56.4282 38.6451 50.4948 44.5785 50.4948 51.8978C50.4948 59.217 56.4282 65.1504 63.7474 65.1504Z"
            fill="#F58A97" />
        <path
            d="M63.7474 38.6451C62.9629 38.6451 62.1955 38.7173 61.4484 38.8479C67.6711 39.937 72.402 45.3631 72.402 51.8976C72.402 58.4323 67.6711 63.8583 61.4484 64.9473C62.1955 65.0781 62.9628 65.1501 63.7474 65.1501C71.0666 65.1501 77 59.2168 77 51.8975C77 44.5785 71.0666 38.6451 63.7474 38.6451Z"
            fill="#F07281" />
        <path
            d="M60.4935 47.3903C60.4935 47.0475 60.8644 46.8333 61.1611 47.0047L69.2212 51.6604C69.5178 51.8318 69.5178 52.2603 69.2212 52.4317L61.1611 57.0875C60.8644 57.2589 60.4935 57.0446 60.4935 56.7018V47.3903Z"
            fill="white" />
        <path
            d="M63.7474 33.8742C71.0666 33.8742 77 27.9408 77 20.6215C77 13.3023 71.0666 7.3689 63.7474 7.3689C56.4282 7.3689 50.4948 13.3023 50.4948 20.6215C50.4948 27.9408 56.4282 33.8742 63.7474 33.8742Z"
            fill="#8FD8FA" />
        <path
            d="M63.7474 7.36902C62.9629 7.36902 62.1955 7.44117 61.4484 7.5718C67.6711 8.66084 72.402 14.0868 72.402 20.6215C72.402 27.1562 67.6711 32.5822 61.4484 33.6712C62.1955 33.802 62.9628 33.874 63.7474 33.874C71.0666 33.874 77 27.9407 77 20.6214C77 13.3023 71.0666 7.36902 63.7474 7.36902Z"
            fill="#6BCDFE" />
        <path
            d="M67.7664 12.3075H65.0425C63.1331 12.3075 61.5796 13.861 61.5796 15.7704V19.1101H59.7282C59.0933 19.1101 58.5788 19.6247 58.5788 20.2596C58.5788 20.8945 59.0934 21.409 59.7282 21.409H61.5796V28.7157C61.5796 29.3506 62.0942 29.8651 62.729 29.8651C63.3639 29.8651 63.8785 29.3505 63.8785 28.7157V21.409H65.7297C66.3647 21.409 66.8791 20.8944 66.8791 20.2596C66.8791 19.6246 66.3645 19.1101 65.7297 19.1101H63.8785V15.7704C63.8785 15.1286 64.4005 14.6065 65.0423 14.6065H67.7663C68.4013 14.6065 68.9157 14.0919 68.9157 13.4571C68.916 12.8221 68.4014 12.3075 67.7664 12.3075Z"
            fill="white" />
        <path
            d="M38.6645 27.8266C33.8991 27.9516 29.9619 31.747 29.6682 36.5052C29.5907 37.7598 29.7663 38.9632 30.1446 40.0728C30.2211 40.2972 30.2172 40.5408 30.1385 40.7645L28.9052 44.2727C28.7345 44.758 29.2015 45.225 29.6868 45.0544L32.1549 44.1867C32.506 44.0633 32.8928 44.1348 33.1851 44.3653C34.8238 45.6569 36.9083 46.4077 39.1705 46.3464C44.1435 46.2116 48.16 42.093 48.1765 37.1183C48.1939 31.905 43.9047 27.6892 38.6645 27.8266Z"
            fill="#AEE69C" />
        <path
            d="M38.6645 27.8266C37.9613 27.8451 37.2769 27.9454 36.6189 28.115C40.6297 29.1418 43.593 32.784 43.5786 37.1183C43.5643 41.3923 40.5965 45.0316 36.6074 46.0583C37.4239 46.2678 38.2832 46.3703 39.1705 46.3462C44.1435 46.2114 48.16 42.0929 48.1765 37.1181C48.1939 31.905 43.9047 27.6892 38.6645 27.8266Z"
            fill="#89DAA4" />
        <path
            d="M40.124 40.4292C39.5231 40.4292 38.9218 40.2691 38.3927 39.9478L36.6724 38.9034C35.5855 38.2429 34.9615 36.9987 35.0829 35.7331L35.085 35.7099C35.1566 34.9626 35.3991 34.2326 35.7865 33.5946C36.116 33.0519 36.8233 32.8793 37.3657 33.2088C37.9083 33.5384 38.081 34.2453 37.7515 34.7881C37.5429 35.1316 37.4123 35.5247 37.3741 35.9247L37.372 35.9481C37.3337 36.3461 37.5277 36.733 37.8659 36.9383L39.5862 37.9827C39.9241 38.1879 40.3566 38.1818 40.6886 37.9668L40.7123 37.9513C41.0496 37.7329 41.338 37.4358 41.5466 37.0923C41.8762 36.5497 42.5831 36.3771 43.1259 36.7062C43.6685 37.0358 43.8413 37.7428 43.5119 38.2855C43.1245 38.9234 42.5886 39.4753 41.962 39.881L41.9385 39.8963C41.391 40.251 40.7577 40.4292 40.124 40.4292Z"
            fill="white" />
    </g>
    <defs>
        <clipPath id="clip0_1_713">
            <rect width="77" height="77" fill="white" />
        </clipPath>
    </defs>
</svg>